<svg xmlns="http://www.w3.org/2000/svg" xmlns:xlink="http://www.w3.org/1999/xlink" width="500" zoomAndPan="magnify" viewBox="0 0 375 374.999991" height="500" preserveAspectRatio="xMidYMid meet" version="1.2"><defs><clipPath id="4f955adcbd"><rect x="0" width="149" y="0" height="216"/></clipPath><clipPath id="3c96ae7821"><rect x="0" width="90" y="0" height="19"/></clipPath><clipPath id="57a658f134"><rect x="0" width="139" y="0" height="36"/></clipPath><clipPath id="da35b8f7b0"><rect x="0" width="105" y="0" height="179"/></clipPath></defs><g id="b83b65442b"><g transform="matrix(1,0,0,1,118,62)"><g clip-path="url(#4f955adcbd)"><g style="fill:#000000;fill-opacity:0.2902;"><g transform="translate(5.425391, 161.278491)"><path style="stroke:none" d="M 7.28125 0 C 9.5 -2.21875 10.710938 -5.128906 10.921875 -8.734375 C 11.128906 -12.335938 11.234375 -16.082031 11.234375 -19.96875 L 11.234375 -125.609375 C 11.234375 -129.628906 11.128906 -133.40625 10.921875 -136.9375 C 10.710938 -140.46875 9.5 -143.34375 7.28125 -145.5625 L 24.125 -145.5625 C 22.457031 -143.90625 21.378906 -141.863281 20.890625 -139.4375 C 20.410156 -137.007812 20.171875 -134.410156 20.171875 -131.640625 L 20.171875 -101.6875 C 20.171875 -95.863281 21.695312 -91.976562 24.75 -90.03125 C 27.800781 -88.09375 31.890625 -87.125 37.015625 -87.125 C 41.867188 -87.125 47.378906 -87.539062 53.546875 -88.375 C 59.710938 -89.207031 66.191406 -89.625 72.984375 -89.625 C 89.484375 -89.625 102.132812 -86.257812 110.9375 -79.53125 C 119.738281 -72.8125 124.835938 -64.53125 126.234375 -54.6875 L 126.234375 -125.609375 C 126.234375 -129.628906 126.128906 -133.40625 125.921875 -136.9375 C 125.710938 -140.46875 124.5 -143.34375 122.28125 -145.5625 L 139.125 -145.5625 C 136.90625 -143.34375 135.691406 -140.46875 135.484375 -136.9375 C 135.273438 -133.40625 135.171875 -129.628906 135.171875 -125.609375 L 135.171875 -19.96875 C 135.171875 -16.082031 135.273438 -12.335938 135.484375 -8.734375 C 135.691406 -5.128906 136.90625 -2.21875 139.125 0 L 122.28125 0 C 124.5 -2.21875 125.710938 -5.128906 125.921875 -8.734375 C 126.128906 -12.335938 126.234375 -16.082031 126.234375 -19.96875 L 126.234375 -44.921875 C 126.234375 -51.578125 124.5 -57.609375 121.03125 -63.015625 C 117.5625 -68.421875 112.328125 -72.679688 105.328125 -75.796875 C 98.328125 -78.921875 89.554688 -80.484375 79.015625 -80.484375 C 74.171875 -80.484375 68.835938 -80.203125 63.015625 -79.640625 C 57.191406 -79.085938 51.644531 -78.8125 46.375 -78.8125 C 39.582031 -78.8125 33.691406 -79.78125 28.703125 -81.71875 C 23.710938 -83.664062 20.867188 -87.828125 20.171875 -94.203125 L 20.171875 -19.96875 C 20.171875 -16.082031 20.273438 -12.335938 20.484375 -8.734375 C 20.691406 -5.128906 21.90625 -2.21875 24.125 0 Z M 7.28125 0 "/></g></g><g style="fill:#000000;fill-opacity:1;"><g transform="translate(0.979957, 149.06476)"><path style="stroke:none" d="M 7.28125 0 C 9.5 -2.21875 10.710938 -5.128906 10.921875 -8.734375 C 11.128906 -12.335938 11.234375 -16.082031 11.234375 -19.96875 L 11.234375 -125.609375 C 11.234375 -129.628906 11.128906 -133.40625 10.921875 -136.9375 C 10.710938 -140.46875 9.5 -143.34375 7.28125 -145.5625 L 24.125 -145.5625 C 22.457031 -143.90625 21.378906 -141.863281 20.890625 -139.4375 C 20.410156 -137.007812 20.171875 -134.410156 20.171875 -131.640625 L 20.171875 -101.6875 C 20.171875 -95.863281 21.695312 -91.976562 24.75 -90.03125 C 27.800781 -88.09375 31.890625 -87.125 37.015625 -87.125 C 41.867188 -87.125 47.378906 -87.539062 53.546875 -88.375 C 59.710938 -89.207031 66.191406 -89.625 72.984375 -89.625 C 89.484375 -89.625 102.132812 -86.257812 110.9375 -79.53125 C 119.738281 -72.8125 124.835938 -64.53125 126.234375 -54.6875 L 126.234375 -125.609375 C 126.234375 -129.628906 126.128906 -133.40625 125.921875 -136.9375 C 125.710938 -140.46875 124.5 -143.34375 122.28125 -145.5625 L 139.125 -145.5625 C 136.90625 -143.34375 135.691406 -140.46875 135.484375 -136.9375 C 135.273438 -133.40625 135.171875 -129.628906 135.171875 -125.609375 L 135.171875 -19.96875 C 135.171875 -16.082031 135.273438 -12.335938 135.484375 -8.734375 C 135.691406 -5.128906 136.90625 -2.21875 139.125 0 L 122.28125 0 C 124.5 -2.21875 125.710938 -5.128906 125.921875 -8.734375 C 126.128906 -12.335938 126.234375 -16.082031 126.234375 -19.96875 L 126.234375 -44.921875 C 126.234375 -51.578125 124.5 -57.609375 121.03125 -63.015625 C 117.5625 -68.421875 112.328125 -72.679688 105.328125 -75.796875 C 98.328125 -78.921875 89.554688 -80.484375 79.015625 -80.484375 C 74.171875 -80.484375 68.835938 -80.203125 63.015625 -79.640625 C 57.191406 -79.085938 51.644531 -78.8125 46.375 -78.8125 C 39.582031 -78.8125 33.691406 -79.78125 28.703125 -81.71875 C 23.710938 -83.664062 20.867188 -87.828125 20.171875 -94.203125 L 20.171875 -19.96875 C 20.171875 -16.082031 20.273438 -12.335938 20.484375 -8.734375 C 20.691406 -5.128906 21.90625 -2.21875 24.125 0 Z M 7.28125 0 "/></g></g></g></g><g transform="matrix(1,0,0,1,145,278)"><g clip-path="url(#3c96ae7821)"><g style="fill:#000000;fill-opacity:1;"><g transform="translate(1.48871, 13.406061)"><path style="stroke:none" d="M 1.546875 -9.484375 L 5.40625 -9.484375 C 6.40625 -9.484375 7.289062 -9.28125 8.0625 -8.875 C 8.832031 -8.476562 9.425781 -7.921875 9.84375 -7.203125 C 10.269531 -6.484375 10.484375 -5.660156 10.484375 -4.734375 C 10.484375 -3.816406 10.269531 -3 9.84375 -2.28125 C 9.425781 -1.5625 8.832031 -1 8.0625 -0.59375 C 7.289062 -0.195312 6.40625 0 5.40625 0 L 1.546875 0 Z M 5.34375 -0.859375 C 6.175781 -0.859375 6.90625 -1.023438 7.53125 -1.359375 C 8.15625 -1.691406 8.640625 -2.148438 8.984375 -2.734375 C 9.328125 -3.316406 9.5 -3.984375 9.5 -4.734375 C 9.5 -5.492188 9.328125 -6.164062 8.984375 -6.75 C 8.640625 -7.332031 8.15625 -7.785156 7.53125 -8.109375 C 6.90625 -8.441406 6.175781 -8.609375 5.34375 -8.609375 L 2.546875 -8.609375 L 2.546875 -0.859375 Z M 5.34375 -0.859375 "/></g></g><g style="fill:#000000;fill-opacity:1;"><g transform="translate(12.93443, 13.406061)"><path style="stroke:none" d="M 8.25 -0.859375 L 8.25 0 L 1.546875 0 L 1.546875 -9.484375 L 8.046875 -9.484375 L 8.046875 -8.609375 L 2.546875 -8.609375 L 2.546875 -5.25 L 7.453125 -5.25 L 7.453125 -4.390625 L 2.546875 -4.390625 L 2.546875 -0.859375 Z M 8.25 -0.859375 "/></g></g><g style="fill:#000000;fill-opacity:1;"><g transform="translate(22.253558, 13.406061)"><path style="stroke:none" d="M 4.15625 0.078125 C 3.457031 0.078125 2.785156 -0.03125 2.140625 -0.25 C 1.492188 -0.476562 0.992188 -0.78125 0.640625 -1.15625 L 1.03125 -1.921875 C 1.375 -1.578125 1.828125 -1.296875 2.390625 -1.078125 C 2.960938 -0.867188 3.550781 -0.765625 4.15625 -0.765625 C 5.007812 -0.765625 5.644531 -0.921875 6.0625 -1.234375 C 6.488281 -1.546875 6.703125 -1.953125 6.703125 -2.453125 C 6.703125 -2.828125 6.585938 -3.128906 6.359375 -3.359375 C 6.128906 -3.585938 5.847656 -3.757812 5.515625 -3.875 C 5.179688 -4 4.71875 -4.132812 4.125 -4.28125 C 3.40625 -4.457031 2.832031 -4.628906 2.40625 -4.796875 C 1.988281 -4.960938 1.625 -5.21875 1.3125 -5.5625 C 1.007812 -5.90625 0.859375 -6.375 0.859375 -6.96875 C 0.859375 -7.445312 0.984375 -7.878906 1.234375 -8.265625 C 1.492188 -8.660156 1.882812 -8.972656 2.40625 -9.203125 C 2.9375 -9.441406 3.585938 -9.5625 4.359375 -9.5625 C 4.898438 -9.5625 5.429688 -9.484375 5.953125 -9.328125 C 6.472656 -9.179688 6.921875 -8.976562 7.296875 -8.71875 L 6.96875 -7.921875 C 6.5625 -8.179688 6.132812 -8.375 5.6875 -8.5 C 5.238281 -8.632812 4.796875 -8.703125 4.359375 -8.703125 C 3.523438 -8.703125 2.898438 -8.539062 2.484375 -8.21875 C 2.066406 -7.90625 1.859375 -7.492188 1.859375 -6.984375 C 1.859375 -6.609375 1.972656 -6.304688 2.203125 -6.078125 C 2.429688 -5.847656 2.71875 -5.671875 3.0625 -5.546875 C 3.414062 -5.421875 3.882812 -5.285156 4.46875 -5.140625 C 5.164062 -4.972656 5.726562 -4.804688 6.15625 -4.640625 C 6.582031 -4.472656 6.941406 -4.21875 7.234375 -3.875 C 7.535156 -3.539062 7.6875 -3.082031 7.6875 -2.5 C 7.6875 -2.019531 7.554688 -1.582031 7.296875 -1.1875 C 7.046875 -0.800781 6.65625 -0.492188 6.125 -0.265625 C 5.59375 -0.0351562 4.9375 0.078125 4.15625 0.078125 Z M 4.15625 0.078125 "/></g></g><g style="fill:#000000;fill-opacity:1;"><g transform="translate(30.841237, 13.406061)"><path style="stroke:none" d="M 1.546875 -9.484375 L 5.40625 -9.484375 C 6.40625 -9.484375 7.289062 -9.28125 8.0625 -8.875 C 8.832031 -8.476562 9.425781 -7.921875 9.84375 -7.203125 C 10.269531 -6.484375 10.484375 -5.660156 10.484375 -4.734375 C 10.484375 -3.816406 10.269531 -3 9.84375 -2.28125 C 9.425781 -1.5625 8.832031 -1 8.0625 -0.59375 C 7.289062 -0.195312 6.40625 0 5.40625 0 L 1.546875 0 Z M 5.34375 -0.859375 C 6.175781 -0.859375 6.90625 -1.023438 7.53125 -1.359375 C 8.15625 -1.691406 8.640625 -2.148438 8.984375 -2.734375 C 9.328125 -3.316406 9.5 -3.984375 9.5 -4.734375 C 9.5 -5.492188 9.328125 -6.164062 8.984375 -6.75 C 8.640625 -7.332031 8.15625 -7.785156 7.53125 -8.109375 C 6.90625 -8.441406 6.175781 -8.609375 5.34375 -8.609375 L 2.546875 -8.609375 L 2.546875 -0.859375 Z M 5.34375 -0.859375 "/></g></g><g style="fill:#000000;fill-opacity:1;"><g transform="translate(42.286957, 13.406061)"><path style="stroke:none" d="M 8.25 -0.859375 L 8.25 0 L 1.546875 0 L 1.546875 -9.484375 L 8.046875 -9.484375 L 8.046875 -8.609375 L 2.546875 -8.609375 L 2.546875 -5.25 L 7.453125 -5.25 L 7.453125 -4.390625 L 2.546875 -4.390625 L 2.546875 -0.859375 Z M 8.25 -0.859375 "/></g></g><g style="fill:#000000;fill-opacity:1;"><g transform="translate(51.606086, 13.406061)"><path style="stroke:none" d=""/></g></g><g style="fill:#000000;fill-opacity:1;"><g transform="translate(55.412301, 13.406061)"><path style="stroke:none" d="M 7.1875 -0.859375 L 7.1875 0 L 0.53125 0 L 0.53125 -0.6875 L 4.46875 -4.546875 C 4.96875 -5.035156 5.304688 -5.457031 5.484375 -5.8125 C 5.660156 -6.175781 5.75 -6.535156 5.75 -6.890625 C 5.75 -7.453125 5.554688 -7.890625 5.171875 -8.203125 C 4.785156 -8.515625 4.234375 -8.671875 3.515625 -8.671875 C 2.410156 -8.671875 1.550781 -8.316406 0.9375 -7.609375 L 0.25 -8.203125 C 0.613281 -8.640625 1.082031 -8.972656 1.65625 -9.203125 C 2.226562 -9.441406 2.878906 -9.5625 3.609375 -9.5625 C 4.566406 -9.5625 5.328125 -9.332031 5.890625 -8.875 C 6.460938 -8.425781 6.75 -7.800781 6.75 -7 C 6.75 -6.507812 6.640625 -6.039062 6.421875 -5.59375 C 6.203125 -5.144531 5.789062 -4.625 5.1875 -4.03125 L 1.96875 -0.859375 Z M 7.1875 -0.859375 "/></g></g><g style="fill:#000000;fill-opacity:1;"><g transform="translate(63.363363, 13.406061)"><path style="stroke:none" d="M 4.484375 0.078125 C 3.753906 0.078125 3.101562 -0.113281 2.53125 -0.5 C 1.957031 -0.882812 1.507812 -1.441406 1.1875 -2.171875 C 0.863281 -2.898438 0.703125 -3.753906 0.703125 -4.734375 C 0.703125 -5.722656 0.863281 -6.582031 1.1875 -7.3125 C 1.507812 -8.039062 1.957031 -8.597656 2.53125 -8.984375 C 3.101562 -9.367188 3.753906 -9.5625 4.484375 -9.5625 C 5.210938 -9.5625 5.863281 -9.367188 6.4375 -8.984375 C 7.007812 -8.597656 7.457031 -8.039062 7.78125 -7.3125 C 8.113281 -6.582031 8.28125 -5.722656 8.28125 -4.734375 C 8.28125 -3.753906 8.113281 -2.898438 7.78125 -2.171875 C 7.457031 -1.441406 7.007812 -0.882812 6.4375 -0.5 C 5.863281 -0.113281 5.210938 0.078125 4.484375 0.078125 Z M 4.484375 -0.8125 C 5.035156 -0.8125 5.519531 -0.960938 5.9375 -1.265625 C 6.351562 -1.578125 6.679688 -2.023438 6.921875 -2.609375 C 7.160156 -3.203125 7.28125 -3.910156 7.28125 -4.734375 C 7.28125 -5.566406 7.160156 -6.273438 6.921875 -6.859375 C 6.679688 -7.453125 6.351562 -7.898438 5.9375 -8.203125 C 5.519531 -8.515625 5.035156 -8.671875 4.484375 -8.671875 C 3.929688 -8.671875 3.441406 -8.515625 3.015625 -8.203125 C 2.597656 -7.898438 2.269531 -7.453125 2.03125 -6.859375 C 1.800781 -6.273438 1.6875 -5.566406 1.6875 -4.734375 C 1.6875 -3.910156 1.800781 -3.203125 2.03125 -2.609375 C 2.269531 -2.023438 2.597656 -1.578125 3.015625 -1.265625 C 3.441406 -0.960938 3.929688 -0.8125 4.484375 -0.8125 Z M 4.484375 -0.8125 "/></g></g><g style="fill:#000000;fill-opacity:1;"><g transform="translate(72.587676, 13.406061)"><path style="stroke:none" d="M 7.1875 -0.859375 L 7.1875 0 L 0.53125 0 L 0.53125 -0.6875 L 4.46875 -4.546875 C 4.96875 -5.035156 5.304688 -5.457031 5.484375 -5.8125 C 5.660156 -6.175781 5.75 -6.535156 5.75 -6.890625 C 5.75 -7.453125 5.554688 -7.890625 5.171875 -8.203125 C 4.785156 -8.515625 4.234375 -8.671875 3.515625 -8.671875 C 2.410156 -8.671875 1.550781 -8.316406 0.9375 -7.609375 L 0.25 -8.203125 C 0.613281 -8.640625 1.082031 -8.972656 1.65625 -9.203125 C 2.226562 -9.441406 2.878906 -9.5625 3.609375 -9.5625 C 4.566406 -9.5625 5.328125 -9.332031 5.890625 -8.875 C 6.460938 -8.425781 6.75 -7.800781 6.75 -7 C 6.75 -6.507812 6.640625 -6.039062 6.421875 -5.59375 C 6.203125 -5.144531 5.789062 -4.625 5.1875 -4.03125 L 1.96875 -0.859375 Z M 7.1875 -0.859375 "/></g></g><g style="fill:#000000;fill-opacity:1;"><g transform="translate(80.538738, 13.406061)"><path style="stroke:none" d="M 3.203125 -5.59375 C 4.566406 -5.59375 5.5625 -5.347656 6.1875 -4.859375 C 6.820312 -4.367188 7.140625 -3.679688 7.140625 -2.796875 C 7.140625 -2.242188 7.007812 -1.75 6.75 -1.3125 C 6.488281 -0.875 6.101562 -0.53125 5.59375 -0.28125 C 5.082031 -0.0390625 4.453125 0.078125 3.703125 0.078125 C 3.023438 0.078125 2.378906 -0.03125 1.765625 -0.25 C 1.160156 -0.46875 0.671875 -0.765625 0.296875 -1.140625 L 0.765625 -1.90625 C 1.085938 -1.582031 1.503906 -1.316406 2.015625 -1.109375 C 2.535156 -0.910156 3.09375 -0.8125 3.6875 -0.8125 C 4.46875 -0.8125 5.070312 -0.988281 5.5 -1.34375 C 5.9375 -1.695312 6.15625 -2.164062 6.15625 -2.75 C 6.15625 -3.394531 5.910156 -3.882812 5.421875 -4.21875 C 4.941406 -4.5625 4.128906 -4.734375 2.984375 -4.734375 L 0.96875 -4.734375 L 1.453125 -9.484375 L 6.640625 -9.484375 L 6.640625 -8.609375 L 2.296875 -8.609375 L 1.984375 -5.59375 Z M 3.203125 -5.59375 "/></g></g></g></g><g transform="matrix(1,0,0,1,124,246)"><g clip-path="url(#57a658f134)"><g style="fill:#000000;fill-opacity:1;"><g transform="translate(1.419321, 24.49383)"><path style="stroke:none" d="M 0.625 0 C 0.550781 0 0.515625 -0.0351562 0.515625 -0.109375 L 0.515625 -0.40625 C 0.515625 -0.476562 0.550781 -0.515625 0.625 -0.515625 L 0.921875 -0.515625 C 1.660156 -0.515625 2.304688 -0.671875 2.859375 -0.984375 C 3.078125 -1.109375 3.257812 -1.304688 3.40625 -1.578125 C 3.550781 -1.847656 3.625 -2.148438 3.625 -2.484375 L 3.625 -16.109375 C 3.625 -16.640625 3.28125 -17.046875 2.59375 -17.328125 C 2.113281 -17.535156 1.601562 -17.640625 1.0625 -17.640625 L 0.78125 -17.640625 C 0.71875 -17.640625 0.6875 -17.675781 0.6875 -17.75 L 0.6875 -18.0625 C 0.6875 -18.125 0.71875 -18.15625 0.78125 -18.15625 L 9.5 -18.15625 C 9.570312 -18.15625 9.609375 -18.125 9.609375 -18.0625 L 9.609375 -17.75 C 9.609375 -17.675781 9.570312 -17.640625 9.5 -17.640625 L 8.953125 -17.640625 C 8.066406 -17.640625 7.285156 -17.515625 6.609375 -17.265625 C 6.410156 -17.203125 6.28125 -17.085938 6.21875 -16.921875 C 6.164062 -16.765625 6.140625 -16.492188 6.140625 -16.109375 L 6.140625 -1.828125 C 6.160156 -1.679688 6.238281 -1.539062 6.375 -1.40625 C 6.507812 -1.28125 6.664062 -1.21875 6.84375 -1.21875 L 11.921875 -1.21875 C 12.691406 -1.21875 13.441406 -1.671875 14.171875 -2.578125 C 14.367188 -2.816406 14.613281 -3.132812 14.90625 -3.53125 C 15.195312 -3.9375 15.378906 -4.164062 15.453125 -4.21875 C 15.722656 -4.414062 15.859375 -4.410156 15.859375 -4.203125 C 15.859375 -4.148438 15.847656 -4.097656 15.828125 -4.046875 L 13.890625 -0.234375 C 13.804688 -0.078125 13.710938 0 13.609375 0 Z M 0.625 0 "/></g></g><g style="fill:#000000;fill-opacity:1;"><g transform="translate(15.707021, 24.49383)"><path style="stroke:none" d="M 7.390625 -17.640625 C 5.953125 -17.640625 5.234375 -17.066406 5.234375 -15.921875 L 5.234375 -6.703125 C 5.234375 -4.992188 5.796875 -3.601562 6.921875 -2.53125 C 8.046875 -1.457031 9.488281 -0.921875 11.25 -0.921875 C 13.070312 -0.921875 14.566406 -1.410156 15.734375 -2.390625 C 16.910156 -3.367188 17.5 -4.734375 17.5 -6.484375 L 17.5 -14.671875 C 17.5 -15.484375 17.425781 -16.050781 17.28125 -16.375 C 16.914062 -17.21875 16.082031 -17.640625 14.78125 -17.640625 C 14.71875 -17.640625 14.6875 -17.675781 14.6875 -17.75 L 14.6875 -18.0625 C 14.6875 -18.125 14.71875 -18.15625 14.78125 -18.15625 L 21.125 -18.15625 C 21.1875 -18.15625 21.21875 -18.125 21.21875 -18.0625 L 21.21875 -17.75 C 21.21875 -17.675781 21.125 -17.640625 20.9375 -17.640625 C 19.8125 -17.640625 19.125 -17.203125 18.875 -16.328125 C 18.832031 -16.179688 18.8125 -16.046875 18.8125 -15.921875 L 18.8125 -7.484375 C 18.8125 -3.710938 17.367188 -1.285156 14.484375 -0.203125 C 13.515625 0.160156 12.550781 0.34375 11.59375 0.34375 C 8.144531 0.34375 5.609375 -0.554688 3.984375 -2.359375 C 3.140625 -3.285156 2.71875 -4.429688 2.71875 -5.796875 L 2.71875 -16.09375 C 2.71875 -16.820312 2.273438 -17.304688 1.390625 -17.546875 C 1.128906 -17.609375 0.910156 -17.640625 0.734375 -17.640625 C 0.554688 -17.640625 0.46875 -17.675781 0.46875 -17.75 L 0.46875 -18.0625 C 0.46875 -18.125 0.492188 -18.15625 0.546875 -18.15625 L 7.53125 -18.15625 C 7.601562 -18.15625 7.640625 -18.125 7.640625 -18.0625 L 7.640625 -17.75 C 7.640625 -17.675781 7.554688 -17.640625 7.390625 -17.640625 Z M 7.390625 -17.640625 "/></g></g><g style="fill:#000000;fill-opacity:1;"><g transform="translate(35.568655, 24.49383)"><path style="stroke:none" d="M 3.25 -16.09375 C 3.25 -17.125 2.65625 -17.640625 1.46875 -17.640625 C 1.28125 -17.640625 1.1875 -17.675781 1.1875 -17.75 L 1.1875 -18.0625 C 1.1875 -18.125 1.21875 -18.15625 1.28125 -18.15625 L 7.734375 -18.15625 C 7.804688 -18.15625 7.84375 -18.125 7.84375 -18.0625 L 7.84375 -17.75 C 7.84375 -17.675781 7.648438 -17.640625 7.265625 -17.640625 C 6.890625 -17.640625 6.539062 -17.519531 6.21875 -17.28125 C 5.90625 -17.039062 5.75 -16.546875 5.75 -15.796875 L 5.75 -2.0625 C 5.75 -1.03125 6.347656 -0.515625 7.546875 -0.515625 C 7.722656 -0.515625 7.8125 -0.476562 7.8125 -0.40625 L 7.8125 -0.109375 C 7.8125 -0.0351562 7.78125 0 7.71875 0 L 1.265625 0 C 1.191406 0 1.15625 -0.0351562 1.15625 -0.109375 L 1.15625 -0.40625 C 1.15625 -0.476562 1.34375 -0.515625 1.71875 -0.515625 C 2.101562 -0.515625 2.453125 -0.632812 2.765625 -0.875 C 3.085938 -1.113281 3.25 -1.609375 3.25 -2.359375 Z M 3.25 -16.09375 "/></g></g><g style="fill:#000000;fill-opacity:1;"><g transform="translate(42.905027, 24.49383)"><path style="stroke:none" d="M 20.09375 -7.984375 C 20.1875 -7.984375 20.234375 -7.914062 20.234375 -7.78125 C 20.234375 -7.644531 20.1875 -7.554688 20.09375 -7.515625 C 19.863281 -7.410156 19.625 -7.320312 19.375 -7.25 C 19.132812 -7.1875 18.910156 -7.101562 18.703125 -7 C 18.222656 -6.738281 17.984375 -6.320312 17.984375 -5.75 L 17.984375 -1.5625 C 17.984375 -1.375 17.53125 -1.117188 16.625 -0.796875 C 15.726562 -0.484375 14.992188 -0.253906 14.421875 -0.109375 C 11.765625 0.546875 9.394531 0.476562 7.3125 -0.3125 C 4.914062 -1.226562 3.222656 -2.867188 2.234375 -5.234375 C 1.734375 -6.421875 1.484375 -7.597656 1.484375 -8.765625 C 1.484375 -9.941406 1.597656 -10.929688 1.828125 -11.734375 C 2.535156 -14.171875 4.015625 -16.046875 6.265625 -17.359375 C 7.734375 -18.210938 9.273438 -18.640625 10.890625 -18.640625 C 12.503906 -18.640625 14.222656 -18.316406 16.046875 -17.671875 C 16.378906 -17.546875 16.566406 -17.484375 16.609375 -17.484375 L 16.765625 -17.484375 L 17.28125 -17.625 L 17.609375 -17.625 C 17.703125 -17.625 17.75 -17.570312 17.75 -17.46875 L 17.75 -13.1875 C 17.75 -13.019531 17.65625 -12.9375 17.46875 -12.9375 L 17.40625 -12.9375 C 17.25 -12.957031 17.140625 -13.175781 17.078125 -13.59375 C 17.054688 -13.6875 17.039062 -13.753906 17.03125 -13.796875 C 16.175781 -16.484375 14.367188 -17.828125 11.609375 -17.828125 C 9.390625 -17.828125 7.617188 -16.988281 6.296875 -15.3125 C 4.984375 -13.632812 4.328125 -11.640625 4.328125 -9.328125 C 4.328125 -7.023438 4.988281 -4.984375 6.3125 -3.203125 C 7.644531 -1.429688 9.46875 -0.546875 11.78125 -0.546875 C 12.976562 -0.546875 13.960938 -0.734375 14.734375 -1.109375 C 15.035156 -1.253906 15.265625 -1.4375 15.421875 -1.65625 L 15.421875 -5.1875 C 15.421875 -5.988281 15.191406 -6.578125 14.734375 -6.953125 C 14.285156 -7.328125 13.453125 -7.515625 12.234375 -7.515625 C 12.140625 -7.515625 12.09375 -7.59375 12.09375 -7.75 C 12.09375 -7.90625 12.140625 -7.984375 12.234375 -7.984375 Z M 20.09375 -7.984375 "/></g></g><g style="fill:#000000;fill-opacity:1;"><g transform="translate(62.110147, 24.49383)"><path style="stroke:none" d="M 6.84375 -0.109375 C 6.84375 -0.0351562 6.8125 0 6.75 0 L 0.171875 0 C 0.0976562 0 0.0625 -0.0351562 0.0625 -0.109375 L 0.0625 -0.40625 C 0.0625 -0.476562 0.117188 -0.515625 0.234375 -0.515625 C 1.410156 -0.566406 2.203125 -1.191406 2.609375 -2.390625 L 7.875 -17.609375 C 7.875 -17.617188 7.875 -17.640625 7.875 -17.671875 L 7.734375 -18.09375 C 7.734375 -18.132812 7.753906 -18.15625 7.796875 -18.15625 L 10.359375 -18.15625 C 10.378906 -18.144531 10.40625 -18.132812 10.4375 -18.125 C 10.46875 -18.125 10.492188 -18.101562 10.515625 -18.0625 L 15.953125 -2.765625 C 16.078125 -2.535156 16.175781 -2.328125 16.25 -2.140625 C 16.320312 -1.953125 16.40625 -1.78125 16.5 -1.625 C 16.707031 -1.269531 17.046875 -1 17.515625 -0.8125 C 17.910156 -0.613281 18.269531 -0.515625 18.59375 -0.515625 C 18.664062 -0.515625 18.703125 -0.476562 18.703125 -0.40625 L 18.703125 -0.109375 C 18.703125 -0.0351562 18.664062 0 18.59375 0 L 10.71875 0 C 10.644531 0 10.609375 -0.0351562 10.609375 -0.109375 L 10.609375 -0.40625 C 10.609375 -0.476562 10.765625 -0.519531 11.078125 -0.53125 C 11.398438 -0.550781 11.664062 -0.570312 11.875 -0.59375 C 13.0625 -0.71875 13.65625 -1.117188 13.65625 -1.796875 C 13.65625 -1.847656 13.648438 -1.910156 13.640625 -1.984375 L 11.6875 -7.46875 C 11.6875 -7.488281 11.671875 -7.523438 11.640625 -7.578125 C 11.535156 -7.867188 11.351562 -8.015625 11.09375 -8.015625 L 6.53125 -8.015625 C 6.269531 -8.015625 6.066406 -7.875 5.921875 -7.59375 C 5.898438 -7.539062 5.890625 -7.507812 5.890625 -7.5 L 3.953125 -1.84375 L 3.953125 -1.71875 C 3.953125 -1.5 4.066406 -1.300781 4.296875 -1.125 C 4.828125 -0.71875 5.53125 -0.515625 6.40625 -0.515625 L 6.75 -0.515625 C 6.8125 -0.515625 6.84375 -0.476562 6.84375 -0.40625 Z M 10.65625 -9.453125 C 10.8125 -9.453125 10.890625 -9.515625 10.890625 -9.640625 C 10.890625 -9.710938 10.875 -9.789062 10.84375 -9.875 L 8.921875 -15.15625 C 8.835938 -15.382812 8.773438 -15.5 8.734375 -15.5 C 8.691406 -15.5 8.625 -15.378906 8.53125 -15.140625 L 6.71875 -9.875 C 6.6875 -9.789062 6.671875 -9.695312 6.671875 -9.59375 C 6.671875 -9.5 6.734375 -9.453125 6.859375 -9.453125 Z M 10.65625 -9.453125 "/></g></g><g style="fill:#000000;fill-opacity:1;"><g transform="translate(79.204124, 24.49383)"><path style="stroke:none" d="M 0.671875 0 C 0.597656 0 0.5625 -0.0820312 0.5625 -0.25 L 0.5625 -0.40625 C 0.5625 -0.476562 0.597656 -0.515625 0.671875 -0.515625 C 0.722656 -0.515625 0.800781 -0.519531 0.90625 -0.53125 C 1.019531 -0.550781 1.132812 -0.570312 1.25 -0.59375 C 1.375 -0.613281 1.488281 -0.632812 1.59375 -0.65625 C 1.695312 -0.675781 1.769531 -0.691406 1.8125 -0.703125 C 2.6875 -0.890625 3.125 -1.382812 3.125 -2.1875 L 3.125 -15.78125 C 3.125 -16.519531 2.828125 -17.046875 2.234375 -17.359375 C 1.890625 -17.546875 1.515625 -17.640625 1.109375 -17.640625 L 0.625 -17.640625 C 0.550781 -17.640625 0.515625 -17.675781 0.515625 -17.75 L 0.515625 -18.0625 C 0.515625 -18.125 0.566406 -18.15625 0.671875 -18.15625 L 7.734375 -18.359375 L 9.046875 -18.359375 C 10.554688 -18.253906 11.820312 -17.703125 12.84375 -16.703125 C 13.875 -15.703125 14.390625 -14.46875 14.390625 -13 C 14.390625 -11.539062 13.78125 -10.398438 12.5625 -9.578125 C 12.1875 -9.328125 11.78125 -9.101562 11.34375 -8.90625 L 15.25 -2.53125 C 15.925781 -1.414062 16.835938 -0.632812 17.984375 -0.1875 C 18.078125 -0.15625 18.125 -0.09375 18.125 0 C 18.125 0.21875 17.976562 0.328125 17.6875 0.328125 C 15.757812 0.328125 14.222656 -0.40625 13.078125 -1.875 C 12.835938 -2.207031 12.59375 -2.570312 12.34375 -2.96875 L 9 -8.203125 L 5.9375 -8.34375 L 5.828125 -8.34375 C 5.703125 -8.34375 5.640625 -8.285156 5.640625 -8.171875 L 5.640625 -2.234375 C 5.640625 -1.753906 5.769531 -1.398438 6.03125 -1.171875 C 6.300781 -0.941406 6.765625 -0.785156 7.421875 -0.703125 C 7.585938 -0.671875 7.796875 -0.628906 8.046875 -0.578125 C 8.296875 -0.535156 8.460938 -0.515625 8.546875 -0.515625 C 8.640625 -0.515625 8.6875 -0.476562 8.6875 -0.40625 L 8.6875 -0.109375 C 8.6875 -0.0351562 8.65625 0 8.59375 0 Z M 6.6875 -17.671875 C 6.582031 -17.671875 6.472656 -17.664062 6.359375 -17.65625 C 6.242188 -17.65625 6.09375 -17.648438 5.90625 -17.640625 C 5.726562 -17.640625 5.640625 -17.570312 5.640625 -17.4375 L 5.640625 -9.640625 L 5.671875 -9.25 C 5.691406 -9.0625 5.769531 -8.96875 5.90625 -8.96875 L 7.21875 -8.890625 C 9.632812 -8.890625 11.09375 -9.75 11.59375 -11.46875 C 11.75 -12 11.828125 -12.613281 11.828125 -13.3125 C 11.828125 -14.664062 11.40625 -15.734375 10.5625 -16.515625 C 9.71875 -17.296875 8.640625 -17.6875 7.328125 -17.6875 C 7.203125 -17.6875 7.085938 -17.6875 6.984375 -17.6875 C 6.890625 -17.6875 6.789062 -17.679688 6.6875 -17.671875 Z M 6.6875 -17.671875 "/></g></g><g style="fill:#000000;fill-opacity:1;"><g transform="translate(95.808932, 24.49383)"><path style="stroke:none" d="M 6.84375 -0.109375 C 6.84375 -0.0351562 6.8125 0 6.75 0 L 0.171875 0 C 0.0976562 0 0.0625 -0.0351562 0.0625 -0.109375 L 0.0625 -0.40625 C 0.0625 -0.476562 0.117188 -0.515625 0.234375 -0.515625 C 1.410156 -0.566406 2.203125 -1.191406 2.609375 -2.390625 L 7.875 -17.609375 C 7.875 -17.617188 7.875 -17.640625 7.875 -17.671875 L 7.734375 -18.09375 C 7.734375 -18.132812 7.753906 -18.15625 7.796875 -18.15625 L 10.359375 -18.15625 C 10.378906 -18.144531 10.40625 -18.132812 10.4375 -18.125 C 10.46875 -18.125 10.492188 -18.101562 10.515625 -18.0625 L 15.953125 -2.765625 C 16.078125 -2.535156 16.175781 -2.328125 16.25 -2.140625 C 16.320312 -1.953125 16.40625 -1.78125 16.5 -1.625 C 16.707031 -1.269531 17.046875 -1 17.515625 -0.8125 C 17.910156 -0.613281 18.269531 -0.515625 18.59375 -0.515625 C 18.664062 -0.515625 18.703125 -0.476562 18.703125 -0.40625 L 18.703125 -0.109375 C 18.703125 -0.0351562 18.664062 0 18.59375 0 L 10.71875 0 C 10.644531 0 10.609375 -0.0351562 10.609375 -0.109375 L 10.609375 -0.40625 C 10.609375 -0.476562 10.765625 -0.519531 11.078125 -0.53125 C 11.398438 -0.550781 11.664062 -0.570312 11.875 -0.59375 C 13.0625 -0.71875 13.65625 -1.117188 13.65625 -1.796875 C 13.65625 -1.847656 13.648438 -1.910156 13.640625 -1.984375 L 11.6875 -7.46875 C 11.6875 -7.488281 11.671875 -7.523438 11.640625 -7.578125 C 11.535156 -7.867188 11.351562 -8.015625 11.09375 -8.015625 L 6.53125 -8.015625 C 6.269531 -8.015625 6.066406 -7.875 5.921875 -7.59375 C 5.898438 -7.539062 5.890625 -7.507812 5.890625 -7.5 L 3.953125 -1.84375 L 3.953125 -1.71875 C 3.953125 -1.5 4.066406 -1.300781 4.296875 -1.125 C 4.828125 -0.71875 5.53125 -0.515625 6.40625 -0.515625 L 6.75 -0.515625 C 6.8125 -0.515625 6.84375 -0.476562 6.84375 -0.40625 Z M 10.65625 -9.453125 C 10.8125 -9.453125 10.890625 -9.515625 10.890625 -9.640625 C 10.890625 -9.710938 10.875 -9.789062 10.84375 -9.875 L 8.921875 -15.15625 C 8.835938 -15.382812 8.773438 -15.5 8.734375 -15.5 C 8.691406 -15.5 8.625 -15.378906 8.53125 -15.140625 L 6.71875 -9.875 C 6.6875 -9.789062 6.671875 -9.695312 6.671875 -9.59375 C 6.671875 -9.5 6.734375 -9.453125 6.859375 -9.453125 Z M 10.65625 -9.453125 "/></g></g><g style="fill:#000000;fill-opacity:1;"><g transform="translate(112.902909, 24.49383)"><path style="stroke:none" d="M 18.765625 -2.328125 C 18.765625 -1.171875 19.566406 -0.566406 21.171875 -0.515625 C 21.242188 -0.515625 21.28125 -0.476562 21.28125 -0.40625 L 21.28125 -0.109375 C 21.28125 -0.0351562 21.242188 0 21.171875 0 L 12.984375 0 C 12.910156 0 12.875 -0.0351562 12.875 -0.109375 L 12.875 -0.40625 C 12.875 -0.476562 13.085938 -0.515625 13.515625 -0.515625 C 13.953125 -0.515625 14.441406 -0.609375 14.984375 -0.796875 C 15.828125 -1.066406 16.25 -1.53125 16.25 -2.1875 L 16.25 -8.328125 C 16.25 -8.421875 16.234375 -8.476562 16.203125 -8.5 C 16.179688 -8.519531 16.128906 -8.53125 16.046875 -8.53125 L 5.890625 -8.53125 C 5.804688 -8.53125 5.75 -8.519531 5.71875 -8.5 C 5.695312 -8.476562 5.6875 -8.421875 5.6875 -8.328125 L 5.6875 -2.0625 C 5.6875 -1.03125 6.445312 -0.515625 7.96875 -0.515625 C 8.039062 -0.515625 8.078125 -0.476562 8.078125 -0.40625 L 8.078125 -0.109375 C 8.078125 -0.0351562 8.046875 0 7.984375 0 L 0.875 0 C 0.800781 0 0.765625 -0.0351562 0.765625 -0.109375 L 0.765625 -0.40625 C 0.765625 -0.476562 0.851562 -0.515625 1.03125 -0.515625 C 2.46875 -0.515625 3.1875 -1.128906 3.1875 -2.359375 L 3.1875 -16.09375 C 3.1875 -17.101562 2.585938 -17.632812 1.390625 -17.6875 C 1.210938 -17.695312 1.125 -17.738281 1.125 -17.8125 L 1.125 -18.0625 C 1.125 -18.125 1.148438 -18.15625 1.203125 -18.15625 L 7.671875 -18.15625 C 7.742188 -18.15625 7.78125 -18.125 7.78125 -18.0625 L 7.78125 -17.8125 C 7.78125 -17.757812 7.695312 -17.734375 7.53125 -17.734375 C 6.300781 -17.734375 5.6875 -17.128906 5.6875 -15.921875 L 5.6875 -9.96875 C 5.6875 -9.882812 5.695312 -9.828125 5.71875 -9.796875 C 5.75 -9.773438 5.804688 -9.765625 5.890625 -9.765625 L 16.046875 -9.765625 C 16.128906 -9.765625 16.179688 -9.773438 16.203125 -9.796875 C 16.234375 -9.828125 16.25 -9.882812 16.25 -9.96875 L 16.25 -16.125 C 16.238281 -16.195312 16.226562 -16.265625 16.21875 -16.328125 C 16.21875 -16.398438 16.203125 -16.503906 16.171875 -16.640625 C 16.109375 -16.929688 15.800781 -17.164062 15.25 -17.34375 C 14.707031 -17.53125 14.085938 -17.648438 13.390625 -17.703125 C 13.328125 -17.703125 13.296875 -17.738281 13.296875 -17.8125 L 13.296875 -18.0625 C 13.296875 -18.125 13.320312 -18.15625 13.375 -18.15625 L 20.8125 -18.15625 C 20.882812 -18.15625 20.921875 -18.125 20.921875 -18.0625 L 20.921875 -17.8125 C 20.921875 -17.757812 20.835938 -17.734375 20.671875 -17.734375 C 19.398438 -17.734375 18.765625 -17.128906 18.765625 -15.921875 Z M 18.765625 -2.328125 "/></g></g></g></g><g transform="matrix(1,0,0,1,139,88)"><g clip-path="url(#da35b8f7b0)"><g style="fill:#000000;fill-opacity:0.302;"><g transform="translate(7.397989, 128.624176)"><path style="stroke:none" d="M 6.046875 -121.0625 L 20.0625 -121.0625 C 18.21875 -119.21875 17.207031 -116.828125 17.03125 -113.890625 C 16.863281 -110.953125 16.78125 -107.8125 16.78125 -104.46875 L 16.78125 -1.90625 L 49.46875 -1.90625 C 54.425781 -1.90625 59.695312 -2.132812 65.28125 -2.59375 C 70.875 -3.050781 76.296875 -3.828125 81.546875 -4.921875 C 86.796875 -6.023438 91.378906 -7.382812 95.296875 -9 L 95.296875 0 L 6.046875 0 C 7.898438 -1.84375 8.910156 -4.265625 9.078125 -7.265625 C 9.253906 -10.265625 9.34375 -13.378906 9.34375 -16.609375 L 9.34375 -104.46875 C 9.34375 -107.8125 9.253906 -110.953125 9.078125 -113.890625 C 8.910156 -116.828125 7.898438 -119.21875 6.046875 -121.0625 Z M 6.046875 -121.0625 "/></g></g><g style="fill:#000000;fill-opacity:0.502;"><g transform="translate(4.951891, 126.178078)"><path style="stroke:none" d="M 6.046875 -121.0625 L 20.0625 -121.0625 C 18.21875 -119.21875 17.207031 -116.828125 17.03125 -113.890625 C 16.863281 -110.953125 16.78125 -107.8125 16.78125 -104.46875 L 16.78125 -1.90625 L 49.46875 -1.90625 C 54.425781 -1.90625 59.695312 -2.132812 65.28125 -2.59375 C 70.875 -3.050781 76.296875 -3.828125 81.546875 -4.921875 C 86.796875 -6.023438 91.378906 -7.382812 95.296875 -9 L 95.296875 0 L 6.046875 0 C 7.898438 -1.84375 8.910156 -4.265625 9.078125 -7.265625 C 9.253906 -10.265625 9.34375 -13.378906 9.34375 -16.609375 L 9.34375 -104.46875 C 9.34375 -107.8125 9.253906 -110.953125 9.078125 -113.890625 C 8.910156 -116.828125 7.898438 -119.21875 6.046875 -121.0625 Z M 6.046875 -121.0625 "/></g></g><g style="fill:#000000;fill-opacity:1;"><g transform="translate(2.505792, 123.731979)"><path style="stroke:none" d="M 6.046875 -121.0625 L 20.0625 -121.0625 C 18.21875 -119.21875 17.207031 -116.828125 17.03125 -113.890625 C 16.863281 -110.953125 16.78125 -107.8125 16.78125 -104.46875 L 16.78125 -1.90625 L 49.46875 -1.90625 C 54.425781 -1.90625 59.695312 -2.132812 65.28125 -2.59375 C 70.875 -3.050781 76.296875 -3.828125 81.546875 -4.921875 C 86.796875 -6.023438 91.378906 -7.382812 95.296875 -9 L 95.296875 0 L 6.046875 0 C 7.898438 -1.84375 8.910156 -4.265625 9.078125 -7.265625 C 9.253906 -10.265625 9.34375 -13.378906 9.34375 -16.609375 L 9.34375 -104.46875 C 9.34375 -107.8125 9.253906 -110.953125 9.078125 -113.890625 C 8.910156 -116.828125 7.898438 -119.21875 6.046875 -121.0625 Z M 6.046875 -121.0625 "/></g></g></g></g></g></svg>