<svg xmlns="http://www.w3.org/2000/svg" xmlns:xlink="http://www.w3.org/1999/xlink" width="500" zoomAndPan="magnify" viewBox="0 0 375 374.999991" height="500" preserveAspectRatio="xMidYMid meet" version="1.2"><defs><clipPath id="5f24ea5712"><rect x="0" width="149" y="0" height="216"/></clipPath><clipPath id="4c2b615942"><rect x="0" width="93" y="0" height="160"/></clipPath></defs><g id="b0fdda0337"><g transform="matrix(1,0,0,1,118,62)"><g clip-path="url(#5f24ea5712)"><g style="fill:#000000;fill-opacity:0.4;"><g transform="translate(0.979957, 157.903117)"><path style="stroke:none" d="M 7.28125 0 C 9.5 -2.21875 10.710938 -5.128906 10.921875 -8.734375 C 11.128906 -12.335938 11.234375 -16.082031 11.234375 -19.96875 L 11.234375 -125.609375 C 11.234375 -129.628906 11.128906 -133.40625 10.921875 -136.9375 C 10.710938 -140.46875 9.5 -143.34375 7.28125 -145.5625 L 24.125 -145.5625 C 22.457031 -143.90625 21.378906 -141.863281 20.890625 -139.4375 C 20.410156 -137.007812 20.171875 -134.410156 20.171875 -131.640625 L 20.171875 -101.6875 C 20.171875 -95.863281 21.695312 -91.976562 24.75 -90.03125 C 27.800781 -88.09375 31.890625 -87.125 37.015625 -87.125 C 41.867188 -87.125 47.378906 -87.539062 53.546875 -88.375 C 59.710938 -89.207031 66.191406 -89.625 72.984375 -89.625 C 89.484375 -89.625 102.132812 -86.257812 110.9375 -79.53125 C 119.738281 -72.8125 124.835938 -64.53125 126.234375 -54.6875 L 126.234375 -125.609375 C 126.234375 -129.628906 126.128906 -133.40625 125.921875 -136.9375 C 125.710938 -140.46875 124.5 -143.34375 122.28125 -145.5625 L 139.125 -145.5625 C 136.90625 -143.34375 135.691406 -140.46875 135.484375 -136.9375 C 135.273438 -133.40625 135.171875 -129.628906 135.171875 -125.609375 L 135.171875 -19.96875 C 135.171875 -16.082031 135.273438 -12.335938 135.484375 -8.734375 C 135.691406 -5.128906 136.90625 -2.21875 139.125 0 L 122.28125 0 C 124.5 -2.21875 125.710938 -5.128906 125.921875 -8.734375 C 126.128906 -12.335938 126.234375 -16.082031 126.234375 -19.96875 L 126.234375 -44.921875 C 126.234375 -51.578125 124.5 -57.609375 121.03125 -63.015625 C 117.5625 -68.421875 112.328125 -72.679688 105.328125 -75.796875 C 98.328125 -78.921875 89.554688 -80.484375 79.015625 -80.484375 C 74.171875 -80.484375 68.835938 -80.203125 63.015625 -79.640625 C 57.191406 -79.085938 51.644531 -78.8125 46.375 -78.8125 C 39.582031 -78.8125 33.691406 -79.78125 28.703125 -81.71875 C 23.710938 -83.664062 20.867188 -87.828125 20.171875 -94.203125 L 20.171875 -19.96875 C 20.171875 -16.082031 20.273438 -12.335938 20.484375 -8.734375 C 20.691406 -5.128906 21.90625 -2.21875 24.125 0 Z M 7.28125 0 "/></g></g><g style="fill:#000000;fill-opacity:1;"><g transform="translate(0.979957, 149.06476)"><path style="stroke:none" d="M 7.28125 0 C 9.5 -2.21875 10.710938 -5.128906 10.921875 -8.734375 C 11.128906 -12.335938 11.234375 -16.082031 11.234375 -19.96875 L 11.234375 -125.609375 C 11.234375 -129.628906 11.128906 -133.40625 10.921875 -136.9375 C 10.710938 -140.46875 9.5 -143.34375 7.28125 -145.5625 L 24.125 -145.5625 C 22.457031 -143.90625 21.378906 -141.863281 20.890625 -139.4375 C 20.410156 -137.007812 20.171875 -134.410156 20.171875 -131.640625 L 20.171875 -101.6875 C 20.171875 -95.863281 21.695312 -91.976562 24.75 -90.03125 C 27.800781 -88.09375 31.890625 -87.125 37.015625 -87.125 C 41.867188 -87.125 47.378906 -87.539062 53.546875 -88.375 C 59.710938 -89.207031 66.191406 -89.625 72.984375 -89.625 C 89.484375 -89.625 102.132812 -86.257812 110.9375 -79.53125 C 119.738281 -72.8125 124.835938 -64.53125 126.234375 -54.6875 L 126.234375 -125.609375 C 126.234375 -129.628906 126.128906 -133.40625 125.921875 -136.9375 C 125.710938 -140.46875 124.5 -143.34375 122.28125 -145.5625 L 139.125 -145.5625 C 136.90625 -143.34375 135.691406 -140.46875 135.484375 -136.9375 C 135.273438 -133.40625 135.171875 -129.628906 135.171875 -125.609375 L 135.171875 -19.96875 C 135.171875 -16.082031 135.273438 -12.335938 135.484375 -8.734375 C 135.691406 -5.128906 136.90625 -2.21875 139.125 0 L 122.28125 0 C 124.5 -2.21875 125.710938 -5.128906 125.921875 -8.734375 C 126.128906 -12.335938 126.234375 -16.082031 126.234375 -19.96875 L 126.234375 -44.921875 C 126.234375 -51.578125 124.5 -57.609375 121.03125 -63.015625 C 117.5625 -68.421875 112.328125 -72.679688 105.328125 -75.796875 C 98.328125 -78.921875 89.554688 -80.484375 79.015625 -80.484375 C 74.171875 -80.484375 68.835938 -80.203125 63.015625 -79.640625 C 57.191406 -79.085938 51.644531 -78.8125 46.375 -78.8125 C 39.582031 -78.8125 33.691406 -79.78125 28.703125 -81.71875 C 23.710938 -83.664062 20.867188 -87.828125 20.171875 -94.203125 L 20.171875 -19.96875 C 20.171875 -16.082031 20.273438 -12.335938 20.484375 -8.734375 C 20.691406 -5.128906 21.90625 -2.21875 24.125 0 Z M 7.28125 0 "/></g></g></g></g><g transform="matrix(1,0,0,1,143,101)"><g clip-path="url(#4c2b615942)"><g style="fill:#000000;fill-opacity:0.302;"><g transform="translate(5.421662, 114.118749)"><path style="stroke:none" d="M 5.40625 -108.0625 L 17.90625 -108.0625 C 16.257812 -106.414062 15.359375 -104.28125 15.203125 -101.65625 C 15.046875 -99.03125 14.96875 -96.226562 14.96875 -93.25 L 14.96875 -1.703125 L 44.15625 -1.703125 C 48.582031 -1.703125 53.289062 -1.90625 58.28125 -2.3125 C 63.269531 -2.726562 68.101562 -3.421875 72.78125 -4.390625 C 77.46875 -5.367188 81.5625 -6.582031 85.0625 -8.03125 L 85.0625 0 L 5.40625 0 C 7.050781 -1.644531 7.953125 -3.804688 8.109375 -6.484375 C 8.265625 -9.160156 8.34375 -11.9375 8.34375 -14.8125 L 8.34375 -93.25 C 8.34375 -96.226562 8.265625 -99.03125 8.109375 -101.65625 C 7.953125 -104.28125 7.050781 -106.414062 5.40625 -108.0625 Z M 5.40625 -108.0625 "/></g></g><g style="fill:#000000;fill-opacity:0.502;"><g transform="translate(3.511337, 112.208424)"><path style="stroke:none" d="M 5.40625 -108.0625 L 17.90625 -108.0625 C 16.257812 -106.414062 15.359375 -104.28125 15.203125 -101.65625 C 15.046875 -99.03125 14.96875 -96.226562 14.96875 -93.25 L 14.96875 -1.703125 L 44.15625 -1.703125 C 48.582031 -1.703125 53.289062 -1.90625 58.28125 -2.3125 C 63.269531 -2.726562 68.101562 -3.421875 72.78125 -4.390625 C 77.46875 -5.367188 81.5625 -6.582031 85.0625 -8.03125 L 85.0625 0 L 5.40625 0 C 7.050781 -1.644531 7.953125 -3.804688 8.109375 -6.484375 C 8.265625 -9.160156 8.34375 -11.9375 8.34375 -14.8125 L 8.34375 -93.25 C 8.34375 -96.226562 8.265625 -99.03125 8.109375 -101.65625 C 7.953125 -104.28125 7.050781 -106.414062 5.40625 -108.0625 Z M 5.40625 -108.0625 "/></g></g><g style="fill:#000000;fill-opacity:1;"><g transform="translate(1.601013, 110.298099)"><path style="stroke:none" d="M 5.40625 -108.0625 L 17.90625 -108.0625 C 16.257812 -106.414062 15.359375 -104.28125 15.203125 -101.65625 C 15.046875 -99.03125 14.96875 -96.226562 14.96875 -93.25 L 14.96875 -1.703125 L 44.15625 -1.703125 C 48.582031 -1.703125 53.289062 -1.90625 58.28125 -2.3125 C 63.269531 -2.726562 68.101562 -3.421875 72.78125 -4.390625 C 77.46875 -5.367188 81.5625 -6.582031 85.0625 -8.03125 L 85.0625 0 L 5.40625 0 C 7.050781 -1.644531 7.953125 -3.804688 8.109375 -6.484375 C 8.265625 -9.160156 8.34375 -11.9375 8.34375 -14.8125 L 8.34375 -93.25 C 8.34375 -96.226562 8.265625 -99.03125 8.109375 -101.65625 C 7.953125 -104.28125 7.050781 -106.414062 5.40625 -108.0625 Z M 5.40625 -108.0625 "/></g></g></g></g></g></svg>